<?xml version="1.0" encoding="UTF-8" standalone="no"?>
<!DOCTYPE svg PUBLIC "-//W3C//DTD SVG 1.1//EN" "http://www.w3.org/Graphics/SVG/1.1/DTD/svg11.dtd">
<svg width="100%" height="100%" viewBox="0 0 1000 1000" version="1.1" xmlns="http://www.w3.org/2000/svg" xmlns:xlink="http://www.w3.org/1999/xlink" xml:space="preserve" xmlns:serif="http://www.serif.com/" style="fill-rule:evenodd;clip-rule:evenodd;stroke-linejoin:round;stroke-miterlimit:2;">
    <path d="M1000,363.636C1000,162.94 837.06,0 636.364,0L363.636,0C162.94,0 0,162.94 0,363.636L0,636.364C0,837.06 162.94,1000 363.636,1000L636.364,1000C837.06,1000 1000,837.06 1000,636.364L1000,363.636Z" style="fill:url(#_Linear1);"/>
    <g id="Path_13" transform="matrix(31.1,0,0,31.1,126.8,126.8)">
        <path d="M5.25,2C3.467,2 2,3.467 2,5.25L2,13.25C2,15.033 3.467,16.5 5.25,16.5L7.5,16.5L7.5,18.75C7.5,20.533 8.967,22 10.75,22L18.75,22C20.533,22 22,20.533 22,18.75L22,10.75C22,8.967 20.533,7.5 18.75,7.5L16.5,7.5L16.5,5.25C16.5,3.467 15.033,2 13.25,2L5.25,2ZM16.5,7.5L16.5,13.25C16.5,15.033 15.033,16.5 13.25,16.5L7.5,16.5L7.5,10.75C7.5,8.967 8.967,7.5 10.75,7.5L16.5,7.5Z" style="fill:white;fill-rule:nonzero;"/>
    </g>
    <defs>
        <linearGradient id="_Linear1" x1="0" y1="0" x2="1" y2="0" gradientUnits="userSpaceOnUse" gradientTransform="matrix(1000,0,0,1000,0,500)"><stop offset="0" style="stop-color:rgb(87,0,255);stop-opacity:1"/><stop offset="1" style="stop-color:rgb(144,0,255);stop-opacity:1"/></linearGradient>
    </defs>
</svg>
