<svg id="favicon" xmlns="http://www.w3.org/2000/svg" xmlns:xlink="http://www.w3.org/1999/xlink" width="1000" height="1000" viewBox="0 0 1000 1000">
  <defs>
    <linearGradient id="linear-gradient" x1="1" x2="0.001" gradientUnits="objectBoundingBox">
      <stop offset="0" stop-color="#9100ff"/>
      <stop offset="1" stop-color="#5700ff"/>
    </linearGradient>
  </defs>
  <path id="Path_28" data-name="Path 28" d="M1000,363.636C1000,162.94,837.06,0,636.364,0H363.636C162.94,0,0,162.94,0,363.636V636.364C0,837.06,162.94,1000,363.636,1000H636.364C837.06,1000,1000,837.06,1000,636.364Z" fill-rule="evenodd" fill="url(#linear-gradient)"/>
  <g id="Path_13" transform="translate(126.8 126.8)">
    <path id="Path_29" data-name="Path 29" d="M163.275,62.2C107.824,62.2,62.2,107.824,62.2,163.275v248.8c0,55.451,45.624,101.075,101.075,101.075H233.25v69.975c0,55.451,45.624,101.075,101.075,101.075h248.8c55.451,0,101.075-45.624,101.075-101.075v-248.8c0-55.451-45.624-101.075-101.075-101.075H513.15V163.275c0-55.451-45.624-101.075-101.075-101.075ZM513.15,233.25V412.075c0,55.451-45.624,101.075-101.075,101.075H233.25V334.325c0-55.451,45.624-101.075,101.075-101.075Z" fill="#fff"/>
  </g>
</svg>
